<?xml version="1.0" encoding="UTF-8" standalone="no"?><!DOCTYPE svg PUBLIC "-//W3C//DTD SVG 1.1//EN" "http://www.w3.org/Graphics/SVG/1.1/DTD/svg11.dtd"><svg width="100%" height="100%" viewBox="0 0 1109 609" version="1.1" xmlns="http://www.w3.org/2000/svg" xmlns:xlink="http://www.w3.org/1999/xlink" xml:space="preserve" xmlns:serif="http://www.serif.com/" style="fill-rule:evenodd;clip-rule:evenodd;stroke-linejoin:round;stroke-miterlimit:1.41421;"><rect id="logo-main-midsize" x="3.824" y="0.824" width="1104.17" height="604.328" style="fill:none;"/><g id="Layer-1" serif:id="Layer 1"><path d="M400.309,406.641l277.722,0c58.844,0 109.512,1.223 150.595,-19.592c9.47,-4.798 18.477,-12.062 28.015,-19.752c13.738,-11.077 22.893,-17.481 37.424,-20c20.358,-3.532 35.052,8.71 48.481,21.352c7.185,6.765 14.614,13.759 22.941,19.519c25.607,17.705 62.164,16.382 92.234,18.456l7.482,0.017l0,-15.656l-6.669,0c-27.17,-1.922 -60.925,0.359 -84.143,-15.695c-7.358,-5.087 -14.04,-11.377 -21.113,-18.039c-13.892,-13.078 -33.837,-30.235 -61.889,-25.38c-18.525,3.211 -29.286,10.911 -44.575,23.239c-8.879,7.159 -17.264,13.919 -25.264,17.973c-38.322,19.417 -87.951,17.902 -143.519,17.902l-277.674,0" style="fill:#00935f;fill-rule:nonzero;"/><path d="M194.352,26.321c15.585,9.511 33.36,14.513 51.737,14.513c18.377,0 36.152,-5.002 51.738,-14.513c15.586,9.511 33.362,14.513 51.738,14.513c18.376,0 36.151,-5.002 51.737,-14.513c15.586,9.511 33.361,14.513 51.738,14.513c18.376,0 36.152,-5.002 51.737,-14.513c15.586,9.511 33.361,14.513 51.737,14.513l0,-15.966c-16.938,0 -33.267,-5.061 -47.22,-14.636l-4.517,-3.098l-4.517,3.098c-13.954,9.575 -30.283,14.636 -47.22,14.636c-16.939,0 -33.267,-5.061 -47.221,-14.636l-4.517,-3.098l-4.517,3.098c-13.954,9.575 -30.283,14.636 -47.22,14.636c-16.939,0 -33.267,-5.061 -47.221,-14.636l-4.517,-3.098l-4.517,3.098c-13.954,9.575 -30.283,14.636 -47.221,14.636c-16.938,0 -33.267,-5.061 -47.219,-14.636l-4.518,-3.098l-4.517,3.098c-13.954,9.575 -30.283,14.636 -47.221,14.636c-16.937,0 -33.267,-5.061 -47.221,-14.636l-9.033,13.165c16.625,11.408 36.077,17.437 56.254,17.437c18.377,0 36.152,-5.002 51.738,-14.513" style="fill:#3c61ad;fill-rule:nonzero;"/><g transform="matrix(0.779453,0,0,0.779453,-42.1054,-32.2198)"><path d="M95.066,235.199l0,-71.367l-25.488,0l0,-14.531l68.262,0l0,14.531l-25.43,0l0,71.367l-17.344,0Z" style="fill:#695f62;fill-rule:nonzero;"/><path d="M227.492,235.199l-18.867,0l-7.5,-19.512l-34.336,0l-7.09,19.512l-18.398,0l33.457,-85.898l18.34,0l34.394,85.898Zm-31.933,-33.984l-11.836,-31.875l-11.602,31.875l23.438,0Zm-30.528,-59.649l0,-10.839l37.735,0l0,10.839l-37.735,0Z" style="fill:#695f62;fill-rule:nonzero;"/><path d="M247.557,235.199l0,-85.898l25.957,0l15.586,58.594l15.41,-58.594l26.016,0l0,85.898l-16.114,0l0,-67.617l-17.05,67.617l-16.7,0l-16.992,-67.617l0,67.617l-16.113,0Z" style="fill:#695f62;fill-rule:nonzero;"/><path d="M443.213,235.199l-18.867,0l-7.5,-19.512l-34.336,0l-7.09,19.512l-18.398,0l33.457,-85.898l18.34,0l34.394,85.898Zm-31.933,-33.984l-11.836,-31.875l-11.602,31.875l23.438,0Z" style="fill:#695f62;fill-rule:nonzero;"/><path d="M463.747,235.199l0,-85.898l17.344,0l0,38.144l35.039,-38.144l23.32,0l-32.344,33.457l34.102,52.441l-22.442,0l-23.613,-40.312l-14.062,14.355l0,25.957l-17.344,0Z" style="fill:#695f62;fill-rule:nonzero;"/><rect x="560.745" y="149.301" width="17.344" height="85.898" style="fill:#695f62;fill-rule:nonzero;"/><path d="M215.896,379.199l0,-85.898l25.957,0l15.586,58.594l15.41,-58.594l26.016,0l0,85.898l-16.113,0l0,-67.617l-17.051,67.617l-16.699,0l-16.993,-67.617l0,67.617l-16.113,0Z" style="fill:#695f62;fill-rule:nonzero;"/><path d="M411.052,379.199l-18.867,0l-7.5,-19.512l-34.336,0l-7.09,19.512l-18.398,0l33.457,-85.898l18.34,0l34.394,85.898Zm-31.933,-33.984l-11.836,-31.875l-11.602,31.875l23.438,0Z" style="fill:#695f62;fill-rule:nonzero;"/><path d="M431.586,379.199l0,-85.898l17.344,0l0,38.144l35.039,-38.144l23.32,0l-32.344,33.457l34.102,52.441l-22.442,0l-23.613,-40.312l-14.062,14.355l0,25.957l-17.344,0Z" style="fill:#695f62;fill-rule:nonzero;"/><path d="M610.973,379.199l-18.868,0l-7.5,-19.512l-34.335,0l-7.09,19.512l-18.399,0l33.457,-85.898l18.34,0l34.395,85.898Zm-31.934,-33.984l-11.836,-31.875l-11.601,31.875l23.437,0Z" style="fill:#695f62;fill-rule:nonzero;"/><path d="M627.055,293.301l17.343,0l0,46.523c0,7.383 0.215,12.168 0.645,14.356c0.742,3.515 2.51,6.338 5.303,8.466c2.793,2.129 6.611,3.194 11.455,3.194c4.922,0 8.633,-1.006 11.133,-3.018c2.5,-2.011 4.003,-4.482 4.511,-7.412c0.508,-2.93 0.762,-7.793 0.762,-14.59l0,-47.519l17.344,0l0,45.117c0,10.312 -0.469,17.598 -1.406,21.855c-0.938,4.258 -2.666,7.852 -5.186,10.782c-2.52,2.929 -5.889,5.263 -10.107,7.002c-4.219,1.738 -9.727,2.607 -16.524,2.607c-8.203,0 -14.424,-0.947 -18.662,-2.842c-4.238,-1.894 -7.588,-4.355 -10.049,-7.383c-2.461,-3.027 -4.082,-6.201 -4.863,-9.521c-1.133,-4.922 -1.699,-12.188 -1.699,-21.797l0,-45.82Z" style="fill:#695f62;fill-rule:nonzero;"/><path d="M731.391,379.199l0,-85.898l36.504,0c9.179,0 15.849,0.771 20.009,2.314c4.16,1.543 7.491,4.287 9.991,8.233c2.5,3.945 3.75,8.457 3.75,13.535c0,6.445 -1.895,11.767 -5.684,15.967c-3.789,4.199 -9.453,6.845 -16.992,7.939c3.75,2.188 6.845,4.59 9.287,7.207c2.441,2.617 5.732,7.266 9.873,13.945l10.488,16.758l-20.742,0l-12.539,-18.691c-4.453,-6.68 -7.5,-10.889 -9.141,-12.627c-1.64,-1.738 -3.379,-2.93 -5.215,-3.574c-1.835,-0.645 -4.746,-0.967 -8.73,-0.967l-3.516,0l0,35.859l-17.343,0Zm17.343,-49.57l12.832,0c8.321,0 13.516,-0.352 15.586,-1.055c2.071,-0.703 3.692,-1.914 4.864,-3.633c1.171,-1.718 1.757,-3.867 1.757,-6.445c0,-2.891 -0.771,-5.225 -2.314,-7.002c-1.543,-1.777 -3.721,-2.9 -6.533,-3.369c-1.406,-0.195 -5.625,-0.293 -12.656,-0.293l-13.536,0l0,21.797Z" style="fill:#695f62;fill-rule:nonzero;"/><path d="M908.953,379.199l-18.867,0l-7.5,-19.512l-34.336,0l-7.09,19.512l-18.398,0l33.457,-85.898l18.34,0l34.394,85.898Zm-31.933,-33.984l-11.836,-31.875l-11.602,31.875l23.438,0Z" style="fill:#695f62;fill-rule:nonzero;"/><path d="M925.035,293.301l17.344,0l0,46.523c0,7.383 0.215,12.168 0.644,14.356c0.743,3.515 2.51,6.338 5.303,8.466c2.793,2.129 6.611,3.194 11.455,3.194c4.922,0 8.633,-1.006 11.133,-3.018c2.5,-2.011 4.004,-4.482 4.512,-7.412c0.508,-2.93 0.761,-7.793 0.761,-14.59l0,-47.519l17.344,0l0,45.117c0,10.312 -0.469,17.598 -1.406,21.855c-0.938,4.258 -2.666,7.852 -5.186,10.782c-2.519,2.929 -5.888,5.263 -10.107,7.002c-4.219,1.738 -9.727,2.607 -16.523,2.607c-8.204,0 -14.424,-0.947 -18.663,-2.842c-4.238,-1.894 -7.587,-4.355 -10.048,-7.383c-2.461,-3.027 -4.082,-6.201 -4.864,-9.521c-1.132,-4.922 -1.699,-12.188 -1.699,-21.797l0,-45.82Z" style="fill:#695f62;fill-rule:nonzero;"/><path d="M1029.81,379.199l-0.001,-85.898l27.833,0c10.546,0 17.421,0.429 20.625,1.289c4.921,1.289 9.042,4.092 12.363,8.408c3.32,4.316 4.98,9.893 4.98,16.729c0,5.273 -0.957,9.707 -2.871,13.3c-1.914,3.594 -4.346,6.416 -7.295,8.467c-2.949,2.051 -5.947,3.408 -8.994,4.072c-4.141,0.821 -10.137,1.231 -17.988,1.231l-11.309,0l0,32.402l-17.344,0Zm17.344,-71.367l0,24.375l9.492,0c6.836,0 11.407,-0.449 13.711,-1.348c2.305,-0.898 4.112,-2.304 5.42,-4.218c1.309,-1.914 1.963,-4.141 1.963,-6.68c0,-3.125 -0.918,-5.703 -2.754,-7.734c-1.836,-2.032 -4.16,-3.301 -6.972,-3.809c-2.071,-0.391 -6.231,-0.586 -12.481,-0.586l-8.379,0Z" style="fill:#695f62;fill-rule:nonzero;"/><path d="M1116.82,379.199l0,-85.195l17.344,0l0,70.723l43.125,0l0,14.472l-60.469,0Z" style="fill:#695f62;fill-rule:nonzero;"/><path d="M1277.61,379.199l-18.867,0l-7.5,-19.512l-34.336,0l-7.09,19.512l-18.398,0l33.457,-85.898l18.34,0l34.394,85.898Zm-31.933,-33.984l-11.836,-31.875l-11.602,31.875l23.438,0Z" style="fill:#695f62;fill-rule:nonzero;"/><path d="M1349.77,347.617l16.817,5.332c-2.578,9.375 -6.865,16.338 -12.861,20.889c-5.997,4.551 -13.604,6.826 -22.823,6.826c-11.406,0 -20.781,-3.896 -28.125,-11.689c-7.343,-7.793 -11.015,-18.448 -11.015,-31.963c0,-14.297 3.691,-25.401 11.074,-33.311c7.383,-7.91 17.09,-11.865 29.121,-11.865c10.508,0 19.043,3.105 25.605,9.316c3.907,3.672 6.836,8.946 8.789,15.821l-17.168,4.101c-1.015,-4.453 -3.134,-7.969 -6.357,-10.547c-3.223,-2.578 -7.139,-3.867 -11.748,-3.867c-6.367,0 -11.533,2.285 -15.498,6.856c-3.965,4.57 -5.947,11.972 -5.947,22.207c0,10.859 1.953,18.593 5.859,23.203c3.906,4.609 8.984,6.914 15.234,6.914c4.61,0 8.575,-1.465 11.895,-4.395c3.32,-2.929 5.703,-7.539 7.148,-13.828Z" style="fill:#695f62;fill-rule:nonzero;"/><path d="M1394.97,379.199l0,-85.898l63.691,0l0,14.531l-46.348,0l0,19.043l43.125,0l0,14.473l-43.125,0l0,23.379l47.989,0l0,14.472l-65.332,0Z" style="fill:#695f62;fill-rule:nonzero;"/><path d="M215.896,523.199l0,-85.898l25.957,0l15.586,58.594l15.41,-58.594l26.016,0l0,85.898l-16.113,0l0,-67.617l-17.051,67.617l-16.699,0l-16.993,-67.617l0,67.617l-16.113,0Z" style="fill:#695f62;fill-rule:nonzero;"/><path d="M411.552,523.199l-18.867,0l-7.5,-19.512l-34.336,0l-7.09,19.512l-18.398,0l33.457,-85.898l18.34,0l34.394,85.898Zm-31.933,-33.984l-11.836,-31.875l-11.602,31.875l23.438,0Z" style="fill:#695f62;fill-rule:nonzero;"/><path d="M432.486,523.199l0,-85.898l17.344,0l0,38.144l35.039,-38.144l23.32,0l-32.344,33.457l34.102,52.441l-22.442,0l-23.613,-40.312l-14.062,14.355l0,25.957l-17.344,0Z" style="fill:#695f62;fill-rule:nonzero;"/><rect x="529.384" y="437.301" width="17.344" height="85.898" style="fill:#695f62;fill-rule:nonzero;"/><path d="M579.927,523.199l0,-85.898l16.875,0l35.157,57.363l0,-57.363l16.113,0l0,85.898l-17.402,0l-34.629,-56.015l0,56.015l-16.114,0Z" style="fill:#695f62;fill-rule:nonzero;"/><path d="M727.873,491.617l0,-14.472l37.382,0l0,34.218c-3.632,3.516 -8.896,6.612 -15.791,9.287c-6.894,2.676 -13.876,4.014 -20.947,4.014c-8.984,0 -16.816,-1.885 -23.496,-5.654c-6.68,-3.77 -11.699,-9.16 -15.058,-16.172c-3.36,-7.012 -5.04,-14.639 -5.04,-22.881c0,-8.945 1.875,-16.895 5.625,-23.848c3.75,-6.953 9.239,-12.285 16.465,-15.996c5.508,-2.851 12.364,-4.277 20.567,-4.277c10.664,0 18.994,2.236 24.99,6.709c5.996,4.473 9.853,10.654 11.572,18.545l-17.226,3.222c-1.211,-4.218 -3.487,-7.548 -6.827,-9.99c-3.339,-2.441 -7.509,-3.662 -12.509,-3.662c-7.578,0 -13.604,2.402 -18.076,7.207c-4.473,4.805 -6.709,11.934 -6.709,21.387c0,10.195 2.265,17.842 6.796,22.939c4.532,5.098 10.469,7.647 17.813,7.647c3.633,0 7.275,-0.713 10.928,-2.139c3.652,-1.426 6.787,-3.154 9.404,-5.185l0,-10.899l-19.863,0Z" style="fill:#695f62;fill-rule:nonzero;"/><path d="M366.33,667.199l-20.508,-85.898l17.754,0l12.949,59.004l15.703,-59.004l20.625,0l15.059,60l13.184,-60l17.461,0l-20.86,85.898l-18.398,0l-17.11,-64.219l-17.05,64.219l-18.809,0Z" style="fill:#695f62;fill-rule:nonzero;"/><path d="M486.904,667.199l0,-85.898l63.692,0l0,14.531l-46.348,0l0,19.043l43.125,0l0,14.473l-43.125,0l0,23.379l47.988,0l0,14.472l-65.332,0Z" style="fill:#695f62;fill-rule:nonzero;"/><path d="M566.943,667.199l0,-85.898l63.692,0l0,14.531l-46.348,0l0,19.043l43.125,0l0,14.473l-43.125,0l0,23.379l47.988,0l0,14.472l-65.332,0Z" style="fill:#695f62;fill-rule:nonzero;"/><path d="M647.217,667.199l0,-85.898l17.343,0l0,38.144l35.04,-38.144l23.32,0l-32.344,33.457l34.102,52.441l-22.442,0l-23.613,-40.312l-14.063,14.355l0,25.957l-17.343,0Z" style="fill:#695f62;fill-rule:nonzero;"/><path d="M829.957,651.906l0,15.293l-57.715,0c0.625,-5.781 2.5,-11.26 5.625,-16.435c3.125,-5.176 9.297,-12.041 18.516,-20.596c7.422,-6.914 11.973,-11.602 13.652,-14.063c2.266,-3.398 3.399,-6.757 3.399,-10.078c0,-3.672 -0.987,-6.494 -2.959,-8.466c-1.973,-1.973 -4.698,-2.959 -8.174,-2.959c-3.438,0 -6.172,1.035 -8.203,3.105c-2.032,2.07 -3.203,5.508 -3.516,10.313l-16.406,-1.641c0.976,-9.063 4.043,-15.567 9.199,-19.512c5.156,-3.945 11.602,-5.918 19.336,-5.918c8.477,0 15.137,2.285 19.98,6.856c4.844,4.57 7.266,10.254 7.266,17.05c0,3.868 -0.693,7.549 -2.08,11.045c-1.387,3.496 -3.584,7.159 -6.592,10.987c-1.992,2.539 -5.586,6.191 -10.781,10.957c-5.195,4.765 -8.486,7.929 -9.873,9.492c-1.387,1.562 -2.51,3.086 -3.369,4.57l32.695,0Z" style="fill:#695f62;fill-rule:nonzero;"/><path d="M881.422,580.949c8.32,0 14.824,2.969 19.512,8.906c5.586,7.032 8.379,18.692 8.379,34.981c0,16.25 -2.813,27.93 -8.438,35.039c-4.648,5.859 -11.133,8.789 -19.453,8.789c-8.359,0 -15.098,-3.213 -20.215,-9.639c-5.117,-6.425 -7.676,-17.88 -7.676,-34.365c0,-16.172 2.813,-27.812 8.438,-34.922c4.648,-5.859 11.133,-8.789 19.453,-8.789Zm0,13.653c-1.992,0 -3.77,0.634 -5.332,1.904c-1.563,1.269 -2.774,3.545 -3.633,6.826c-1.133,4.258 -1.699,11.426 -1.699,21.504c0,10.078 0.508,17.002 1.523,20.771c1.016,3.77 2.295,6.28 3.838,7.53c1.543,1.25 3.311,1.875 5.303,1.875c1.992,0 3.769,-0.635 5.332,-1.905c1.562,-1.269 2.773,-3.545 3.633,-6.826c1.133,-4.219 1.699,-11.367 1.699,-21.445c0,-10.078 -0.508,-17.002 -1.523,-20.772c-1.016,-3.769 -2.295,-6.289 -3.838,-7.558c-1.543,-1.27 -3.311,-1.904 -5.303,-1.904Z" style="fill:#695f62;fill-rule:nonzero;"/><path d="M981.457,667.199l-16.465,0l0,-62.051c-6.015,5.625 -13.105,9.786 -21.269,12.481l0,-14.942c4.297,-1.406 8.965,-4.072 14.004,-7.998c5.039,-3.925 8.496,-8.505 10.371,-13.74l13.359,0l0,86.25Z" style="fill:#695f62;fill-rule:nonzero;"/><path d="M1018.69,620.852c-4.258,-1.797 -7.354,-4.268 -9.288,-7.413c-1.933,-3.144 -2.9,-6.591 -2.9,-10.341c0,-6.407 2.236,-11.7 6.709,-15.879c4.473,-4.18 10.83,-6.27 19.072,-6.27c8.164,0 14.502,2.09 19.014,6.27c4.512,4.179 6.768,9.472 6.768,15.879c0,3.984 -1.036,7.529 -3.106,10.634c-2.07,3.106 -4.98,5.479 -8.73,7.12c4.765,1.914 8.388,4.707 10.869,8.378c2.48,3.672 3.72,7.911 3.72,12.715c0,7.93 -2.529,14.375 -7.587,19.336c-5.059,4.961 -11.788,7.442 -20.186,7.442c-7.812,0 -14.316,-2.051 -19.512,-6.153c-6.132,-4.843 -9.199,-11.484 -9.199,-19.922c0,-4.648 1.152,-8.916 3.457,-12.802c2.305,-3.887 5.938,-6.885 10.899,-8.994Zm3.398,-16.582c0,3.281 0.928,5.839 2.783,7.675c1.856,1.836 4.326,2.754 7.412,2.754c3.125,0 5.625,-0.928 7.5,-2.783c1.875,-1.855 2.813,-4.424 2.813,-7.705c0,-3.086 -0.928,-5.557 -2.783,-7.412c-1.856,-1.856 -4.307,-2.783 -7.354,-2.783c-3.164,0 -5.683,0.937 -7.558,2.812c-1.875,1.875 -2.813,4.356 -2.813,7.442Zm-1.523,36.796c0,4.532 1.162,8.067 3.486,10.606c2.324,2.539 5.225,3.808 8.701,3.808c3.399,0 6.211,-1.22 8.438,-3.662c2.226,-2.441 3.339,-5.966 3.339,-10.576c0,-4.023 -1.132,-7.256 -3.398,-9.697c-2.266,-2.442 -5.137,-3.662 -8.613,-3.662c-4.024,0 -7.022,1.387 -8.994,4.16c-1.973,2.773 -2.959,5.781 -2.959,9.023Z" style="fill:#695f62;fill-rule:nonzero;"/></g></g><path d="M42.962,551.899l-13.086,0l0,-4.744l31.57,0l0,4.744l-13.086,0l0,33.424l-5.398,0l0,-33.424Z" style="fill:#695f62;fill-rule:nonzero;"/><path d="M92.852,556.425l0,28.898l-4.961,0l0,-4.362c-1.055,1.49 -2.445,2.644 -4.172,3.462c-1.726,0.818 -3.607,1.227 -5.643,1.227c-3.853,0 -6.888,-1.063 -9.106,-3.19c-2.217,-2.126 -3.326,-5.261 -3.326,-9.405l0,-16.63l5.235,0l0,16.03c0,2.799 0.672,4.916 2.017,6.352c1.345,1.436 3.272,2.154 5.78,2.154c2.762,0 4.943,-0.836 6.543,-2.508c1.599,-1.672 2.399,-4.035 2.399,-7.089l0,-14.939l5.234,0Z" style="fill:#695f62;fill-rule:nonzero;"/><path d="M107.847,561.277c0.909,-1.672 2.254,-2.944 4.035,-3.816c1.781,-0.873 3.944,-1.309 6.488,-1.309l0,5.071c-0.291,-0.037 -0.69,-0.055 -1.199,-0.055c-2.836,0 -5.062,0.845 -6.68,2.536c-1.617,1.69 -2.426,4.098 -2.426,7.224l0,14.395l-5.235,0l0,-28.898l5.017,0l0,4.852Z" style="fill:#695f62;fill-rule:nonzero;"/><path d="M140.235,556.152c3.671,0 6.588,1.063 8.751,3.19c2.163,2.126 3.244,5.243 3.244,9.351l0,16.63l-5.234,0l0,-16.03c0,-2.799 -0.673,-4.908 -2.018,-6.325c-1.344,-1.418 -3.271,-2.127 -5.779,-2.127c-2.836,0 -5.071,0.827 -6.707,2.481c-1.636,1.654 -2.453,4.026 -2.453,7.116l0,14.885l-5.235,0l0,-28.898l5.016,0l0,4.362c1.055,-1.491 2.481,-2.636 4.281,-3.436c1.799,-0.799 3.844,-1.199 6.134,-1.199Z" style="fill:#695f62;fill-rule:nonzero;"/><path d="M161.936,556.425l5.234,0l0,28.898l-5.234,0l0,-28.898Zm2.617,-5.562c-1.018,0 -1.863,-0.327 -2.535,-0.981c-0.673,-0.655 -1.009,-1.454 -1.009,-2.4c0,-0.945 0.336,-1.753 1.009,-2.426c0.672,-0.672 1.517,-1.009 2.535,-1.009c1.018,0 1.863,0.318 2.535,0.955c0.673,0.636 1.009,1.426 1.009,2.371c0,0.982 -0.336,1.809 -1.009,2.481c-0.672,0.673 -1.517,1.009 -2.535,1.009Z" style="fill:#695f62;fill-rule:nonzero;"/><path d="M192.579,556.152c3.671,0 6.588,1.063 8.751,3.19c2.163,2.126 3.245,5.243 3.245,9.351l0,16.63l-5.235,0l0,-16.03c0,-2.799 -0.672,-4.908 -2.017,-6.325c-1.345,-1.418 -3.272,-2.127 -5.78,-2.127c-2.835,0 -5.071,0.827 -6.707,2.481c-1.635,1.654 -2.453,4.026 -2.453,7.116l0,14.885l-5.235,0l0,-28.898l5.017,0l0,4.362c1.054,-1.491 2.481,-2.636 4.28,-3.436c1.799,-0.799 3.844,-1.199 6.134,-1.199Z" style="fill:#695f62;fill-rule:nonzero;"/><path d="M242.088,556.425l0,24.972c0,5.053 -1.254,8.788 -3.762,11.205c-2.509,2.417 -6.253,3.626 -11.233,3.626c-2.726,0 -5.325,-0.373 -7.797,-1.118c-2.471,-0.745 -4.471,-1.808 -5.997,-3.19l2.508,-4.034c1.345,1.163 3.008,2.081 4.989,2.753c1.981,0.673 4.026,1.009 6.134,1.009c3.38,0 5.88,-0.8 7.497,-2.399c1.618,-1.6 2.426,-4.035 2.426,-7.307l0,-2.29c-1.235,1.491 -2.753,2.608 -4.552,3.354c-1.8,0.745 -3.754,1.117 -5.862,1.117c-2.762,0 -5.262,-0.59 -7.497,-1.772c-2.236,-1.181 -3.989,-2.835 -5.262,-4.961c-1.272,-2.127 -1.908,-4.553 -1.908,-7.28c0,-2.726 0.636,-5.152 1.908,-7.279c1.273,-2.126 3.026,-3.771 5.262,-4.934c2.235,-1.163 4.735,-1.745 7.497,-1.745c2.181,0 4.208,0.4 6.08,1.199c1.872,0.8 3.408,1.982 4.607,3.545l0,-4.471l4.962,0Zm-15.049,23.118c1.89,0 3.59,-0.4 5.098,-1.199c1.509,-0.8 2.69,-1.918 3.544,-3.354c0.854,-1.435 1.282,-3.062 1.282,-4.88c0,-2.799 -0.927,-5.061 -2.781,-6.788c-1.854,-1.727 -4.235,-2.59 -7.143,-2.59c-2.944,0 -5.344,0.863 -7.197,2.59c-1.854,1.727 -2.781,3.989 -2.781,6.788c0,1.818 0.427,3.445 1.281,4.88c0.854,1.436 2.036,2.554 3.544,3.354c1.509,0.799 3.226,1.199 5.153,1.199Z" style="fill:#695f62;fill-rule:nonzero;"/><path d="M291.815,575.781l-20.283,0l-4.199,9.542l-5.616,0l17.284,-38.168l5.398,0l17.339,38.168l-5.725,0l-4.198,-9.542Zm-1.908,-4.362l-8.234,-18.702l-8.233,18.702l16.467,0Z" style="fill:#695f62;fill-rule:nonzero;"/><path d="M333.036,556.425l0,28.898l-4.962,0l0,-4.362c-1.054,1.49 -2.444,2.644 -4.171,3.462c-1.727,0.818 -3.608,1.227 -5.643,1.227c-3.853,0 -6.889,-1.063 -9.106,-3.19c-2.217,-2.126 -3.326,-5.261 -3.326,-9.405l0,-16.63l5.234,0l0,16.03c0,2.799 0.673,4.916 2.018,6.352c1.345,1.436 3.271,2.154 5.779,2.154c2.763,0 4.944,-0.836 6.543,-2.508c1.6,-1.672 2.4,-4.035 2.4,-7.089l0,-14.939l5.234,0Z" style="fill:#695f62;fill-rule:nonzero;"/><path d="M355.609,585.65c-2.944,0 -5.57,-0.636 -7.878,-1.908c-2.309,-1.273 -4.117,-3.026 -5.426,-5.262c-1.308,-2.236 -1.963,-4.771 -1.963,-7.606c0,-2.836 0.655,-5.371 1.963,-7.607c1.309,-2.235 3.117,-3.98 5.426,-5.234c2.308,-1.254 4.934,-1.881 7.878,-1.881c2.618,0 4.953,0.527 7.007,1.581c2.054,1.054 3.644,2.581 4.771,4.58l-3.98,2.563c-0.909,-1.381 -2.036,-2.417 -3.381,-3.108c-1.345,-0.691 -2.835,-1.036 -4.471,-1.036c-1.89,0 -3.59,0.418 -5.098,1.254c-1.509,0.836 -2.69,2.027 -3.544,3.572c-0.855,1.544 -1.282,3.316 -1.282,5.316c0,2.035 0.427,3.826 1.282,5.37c0.854,1.545 2.035,2.736 3.544,3.572c1.508,0.836 3.208,1.254 5.098,1.254c1.636,0 3.126,-0.345 4.471,-1.036c1.345,-0.691 2.472,-1.727 3.381,-3.108l3.98,2.508c-1.127,1.999 -2.717,3.535 -4.771,4.608c-2.054,1.072 -4.389,1.608 -7.007,1.608Z" style="fill:#695f62;fill-rule:nonzero;"/><path d="M384.999,571.855l-5.998,5.562l0,7.906l-5.235,0l0,-40.458l5.235,0l0,25.954l15.758,-14.394l6.324,0l-12.159,11.941l13.359,16.957l-6.434,0l-10.85,-13.468Z" style="fill:#695f62;fill-rule:nonzero;"/><rect x="407.354" y="544.865" width="5.234" height="40.458" style="fill:#695f62;fill-rule:nonzero;"/><path d="M433.09,556.152c3.998,0 7.061,0.981 9.187,2.944c2.127,1.963 3.19,4.889 3.19,8.779l0,17.448l-4.962,0l0,-3.817c-0.872,1.345 -2.117,2.372 -3.735,3.081c-1.617,0.709 -3.535,1.063 -5.752,1.063c-3.235,0 -5.825,-0.781 -7.77,-2.344c-1.945,-1.564 -2.917,-3.617 -2.917,-6.162c0,-2.544 0.927,-4.589 2.781,-6.134c1.853,-1.545 4.798,-2.317 8.833,-2.317l8.288,0l0,-1.036c0,-2.254 -0.655,-3.981 -1.963,-5.18c-1.309,-1.2 -3.236,-1.799 -5.78,-1.799c-1.708,0 -3.381,0.281 -5.016,0.845c-1.636,0.563 -3.017,1.317 -4.144,2.262l-2.181,-3.925c1.49,-1.2 3.271,-2.118 5.343,-2.754c2.072,-0.636 4.271,-0.954 6.598,-0.954Zm-1.2,25.463c1.999,0 3.726,-0.445 5.18,-1.336c1.454,-0.89 2.508,-2.153 3.163,-3.789l0,-4.035l-8.07,0c-4.435,0 -6.652,1.49 -6.652,4.471c0,1.454 0.563,2.599 1.69,3.435c1.127,0.836 2.69,1.254 4.689,1.254Z" style="fill:#695f62;fill-rule:nonzero;"/><path d="M470.603,556.152c3.671,0 6.589,1.063 8.751,3.19c2.163,2.126 3.245,5.243 3.245,9.351l0,16.63l-5.235,0l0,-16.03c0,-2.799 -0.672,-4.908 -2.017,-6.325c-1.345,-1.418 -3.272,-2.127 -5.78,-2.127c-2.835,0 -5.071,0.827 -6.706,2.481c-1.636,1.654 -2.454,4.026 -2.454,7.116l0,14.885l-5.235,0l0,-28.898l5.017,0l0,4.362c1.054,-1.491 2.481,-2.636 4.28,-3.436c1.799,-0.799 3.844,-1.199 6.134,-1.199Z" style="fill:#695f62;fill-rule:nonzero;"/><path d="M519.73,544.865l0,40.458l-5.016,0l0,-4.58c-1.163,1.599 -2.635,2.817 -4.417,3.653c-1.781,0.836 -3.744,1.254 -5.888,1.254c-2.799,0 -5.307,-0.618 -7.525,-1.854c-2.217,-1.236 -3.953,-2.971 -5.207,-5.207c-1.254,-2.235 -1.881,-4.807 -1.881,-7.715c0,-2.908 0.627,-5.471 1.881,-7.688c1.254,-2.218 2.99,-3.944 5.207,-5.18c2.218,-1.236 4.726,-1.854 7.525,-1.854c2.072,0 3.98,0.391 5.725,1.172c1.745,0.782 3.199,1.936 4.362,3.463l0,-15.922l5.234,0Zm-14.885,36.205c1.817,0 3.471,-0.427 4.962,-1.281c1.49,-0.855 2.653,-2.054 3.489,-3.599c0.836,-1.545 1.254,-3.317 1.254,-5.316c0,-2 -0.418,-3.772 -1.254,-5.316c-0.836,-1.545 -1.999,-2.736 -3.489,-3.572c-1.491,-0.836 -3.145,-1.254 -4.962,-1.254c-1.854,0 -3.517,0.418 -4.989,1.254c-1.472,0.836 -2.636,2.027 -3.49,3.572c-0.854,1.544 -1.281,3.316 -1.281,5.316c0,1.999 0.427,3.771 1.281,5.316c0.854,1.545 2.018,2.744 3.49,3.599c1.472,0.854 3.135,1.281 4.989,1.281Z" style="fill:#695f62;fill-rule:nonzero;"/><path d="M528.127,547.155l4.58,0l-0.381,14.722l-3.872,0l-0.327,-14.722Z" style="fill:#695f62;fill-rule:nonzero;"/><path d="M549.392,585.65c-2.363,0 -4.635,-0.318 -6.816,-0.954c-2.181,-0.636 -3.889,-1.445 -5.125,-2.426l2.181,-4.144c1.272,0.908 2.817,1.635 4.635,2.181c1.817,0.545 3.653,0.817 5.507,0.817c4.58,0 6.87,-1.308 6.87,-3.925c0,-0.873 -0.309,-1.563 -0.927,-2.072c-0.618,-0.509 -1.39,-0.882 -2.317,-1.118c-0.927,-0.236 -2.245,-0.5 -3.953,-0.791c-2.327,-0.363 -4.226,-0.781 -5.698,-1.254c-1.472,-0.472 -2.736,-1.272 -3.79,-2.399c-1.054,-1.127 -1.581,-2.708 -1.581,-4.744c0,-2.617 1.09,-4.716 3.271,-6.297c2.181,-1.581 5.108,-2.372 8.779,-2.372c1.927,0 3.853,0.236 5.78,0.709c1.926,0.472 3.507,1.108 4.743,1.908l-2.235,4.144c-2.363,-1.527 -5.144,-2.29 -8.342,-2.29c-2.218,0 -3.908,0.364 -5.071,1.091c-1.164,0.727 -1.745,1.69 -1.745,2.889c0,0.945 0.327,1.691 0.981,2.236c0.655,0.545 1.463,0.945 2.427,1.199c0.963,0.255 2.317,0.546 4.062,0.873c2.326,0.4 4.207,0.827 5.643,1.281c1.436,0.455 2.663,1.227 3.681,2.318c1.017,1.09 1.526,2.617 1.526,4.58c0,2.617 -1.117,4.698 -3.353,6.243c-2.236,1.545 -5.28,2.317 -9.133,2.317Z" style="fill:#695f62;fill-rule:nonzero;"/><path d="M591.376,585.65c-2.362,0 -4.634,-0.318 -6.815,-0.954c-2.181,-0.636 -3.89,-1.445 -5.126,-2.426l2.181,-4.144c1.273,0.908 2.818,1.635 4.635,2.181c1.818,0.545 3.653,0.817 5.507,0.817c4.58,0 6.87,-1.308 6.87,-3.925c0,-0.873 -0.309,-1.563 -0.927,-2.072c-0.618,-0.509 -1.39,-0.882 -2.317,-1.118c-0.927,-0.236 -2.245,-0.5 -3.953,-0.791c-2.326,-0.363 -4.226,-0.781 -5.698,-1.254c-1.472,-0.472 -2.735,-1.272 -3.789,-2.399c-1.055,-1.127 -1.582,-2.708 -1.582,-4.744c0,-2.617 1.091,-4.716 3.272,-6.297c2.181,-1.581 5.107,-2.372 8.778,-2.372c1.927,0 3.854,0.236 5.78,0.709c1.927,0.472 3.508,1.108 4.744,1.908l-2.236,4.144c-2.362,-1.527 -5.143,-2.29 -8.342,-2.29c-2.217,0 -3.908,0.364 -5.071,1.091c-1.163,0.727 -1.745,1.69 -1.745,2.889c0,0.945 0.327,1.691 0.982,2.236c0.654,0.545 1.463,0.945 2.426,1.199c0.963,0.255 2.317,0.546 4.062,0.873c2.327,0.4 4.208,0.827 5.644,1.281c1.435,0.455 2.662,1.227 3.68,2.318c1.018,1.09 1.527,2.617 1.527,4.58c0,2.617 -1.118,4.698 -3.354,6.243c-2.235,1.545 -5.279,2.317 -9.133,2.317Z" style="fill:#695f62;fill-rule:nonzero;"/><path d="M625.727,556.152c2.799,0 5.307,0.618 7.525,1.854c2.217,1.236 3.953,2.962 5.207,5.18c1.254,2.217 1.881,4.78 1.881,7.688c0,2.908 -0.627,5.48 -1.881,7.715c-1.254,2.236 -2.99,3.971 -5.207,5.207c-2.218,1.236 -4.726,1.854 -7.525,1.854c-2.072,0 -3.971,-0.4 -5.698,-1.199c-1.726,-0.8 -3.189,-1.963 -4.389,-3.49l0,14.94l-5.234,0l0,-39.476l5.016,0l0,4.58c1.163,-1.6 2.635,-2.808 4.417,-3.626c1.781,-0.818 3.744,-1.227 5.888,-1.227Zm-0.436,24.918c1.854,0 3.517,-0.427 4.989,-1.281c1.472,-0.855 2.636,-2.054 3.49,-3.599c0.854,-1.545 1.281,-3.317 1.281,-5.316c0,-2 -0.427,-3.772 -1.281,-5.316c-0.854,-1.545 -2.018,-2.736 -3.49,-3.572c-1.472,-0.836 -3.135,-1.254 -4.989,-1.254c-1.817,0 -3.462,0.427 -4.934,1.281c-1.473,0.855 -2.636,2.045 -3.49,3.572c-0.854,1.527 -1.281,3.289 -1.281,5.289c0,1.999 0.418,3.771 1.254,5.316c0.836,1.545 1.999,2.744 3.489,3.599c1.491,0.854 3.145,1.281 4.962,1.281Z" style="fill:#695f62;fill-rule:nonzero;"/><path d="M657.843,556.152c3.998,0 7.061,0.981 9.187,2.944c2.127,1.963 3.19,4.889 3.19,8.779l0,17.448l-4.962,0l0,-3.817c-0.872,1.345 -2.117,2.372 -3.735,3.081c-1.617,0.709 -3.535,1.063 -5.752,1.063c-3.235,0 -5.825,-0.781 -7.77,-2.344c-1.945,-1.564 -2.917,-3.617 -2.917,-6.162c0,-2.544 0.927,-4.589 2.781,-6.134c1.853,-1.545 4.798,-2.317 8.833,-2.317l8.288,0l0,-1.036c0,-2.254 -0.655,-3.981 -1.963,-5.18c-1.309,-1.2 -3.236,-1.799 -5.78,-1.799c-1.709,0 -3.381,0.281 -5.016,0.845c-1.636,0.563 -3.017,1.317 -4.144,2.262l-2.181,-3.925c1.49,-1.2 3.271,-2.118 5.343,-2.754c2.072,-0.636 4.271,-0.954 6.598,-0.954Zm-1.2,25.463c1.999,0 3.726,-0.445 5.18,-1.336c1.454,-0.89 2.508,-2.153 3.163,-3.789l0,-4.035l-8.07,0c-4.435,0 -6.652,1.49 -6.652,4.471c0,1.454 0.563,2.599 1.69,3.435c1.127,0.836 2.69,1.254 4.689,1.254Z" style="fill:#695f62;fill-rule:nonzero;"/><path d="M692.684,585.65c-2.944,0 -5.57,-0.636 -7.879,-1.908c-2.308,-1.273 -4.116,-3.026 -5.425,-5.262c-1.308,-2.236 -1.963,-4.771 -1.963,-7.606c0,-2.836 0.655,-5.371 1.963,-7.607c1.309,-2.235 3.117,-3.98 5.425,-5.234c2.309,-1.254 4.935,-1.881 7.879,-1.881c2.618,0 4.953,0.527 7.007,1.581c2.054,1.054 3.644,2.581 4.771,4.58l-3.981,2.563c-0.908,-1.381 -2.035,-2.417 -3.38,-3.108c-1.345,-0.691 -2.835,-1.036 -4.471,-1.036c-1.89,0 -3.59,0.418 -5.098,1.254c-1.509,0.836 -2.69,2.027 -3.544,3.572c-0.855,1.544 -1.282,3.316 -1.282,5.316c0,2.035 0.427,3.826 1.282,5.37c0.854,1.545 2.035,2.736 3.544,3.572c1.508,0.836 3.208,1.254 5.098,1.254c1.636,0 3.126,-0.345 4.471,-1.036c1.345,-0.691 2.472,-1.727 3.38,-3.108l3.981,2.508c-1.127,1.999 -2.717,3.535 -4.771,4.608c-2.054,1.072 -4.389,1.608 -7.007,1.608Z" style="fill:#695f62;fill-rule:nonzero;"/><path d="M736.904,571.037c0,0.4 -0.036,0.927 -0.109,1.582l-23.446,0c0.328,2.544 1.445,4.589 3.354,6.134c1.908,1.545 4.28,2.317 7.115,2.317c3.453,0 6.234,-1.163 8.343,-3.49l2.889,3.381c-1.308,1.527 -2.935,2.69 -4.88,3.49c-1.944,0.799 -4.116,1.199 -6.515,1.199c-3.054,0 -5.762,-0.627 -8.125,-1.881c-2.362,-1.254 -4.189,-3.008 -5.479,-5.262c-1.291,-2.253 -1.936,-4.798 -1.936,-7.633c0,-2.799 0.627,-5.326 1.881,-7.579c1.254,-2.254 2.981,-4.008 5.18,-5.262c2.199,-1.254 4.68,-1.881 7.443,-1.881c2.762,0 5.225,0.627 7.388,1.881c2.163,1.254 3.853,3.008 5.071,5.262c1.217,2.253 1.826,4.834 1.826,7.742Zm-14.285,-10.469c-2.508,0 -4.608,0.764 -6.298,2.291c-1.69,1.526 -2.681,3.526 -2.972,5.997l18.539,0c-0.291,-2.435 -1.281,-4.425 -2.972,-5.97c-1.69,-1.545 -3.789,-2.318 -6.297,-2.318Z" style="fill:#695f62;fill-rule:nonzero;"/><path d="M752.444,585.65c-2.363,0 -4.635,-0.318 -6.816,-0.954c-2.181,-0.636 -3.889,-1.445 -5.125,-2.426l2.181,-4.144c1.272,0.908 2.817,1.635 4.635,2.181c1.817,0.545 3.653,0.817 5.507,0.817c4.58,0 6.87,-1.308 6.87,-3.925c0,-0.873 -0.309,-1.563 -0.927,-2.072c-0.618,-0.509 -1.39,-0.882 -2.317,-1.118c-0.927,-0.236 -2.245,-0.5 -3.953,-0.791c-2.327,-0.363 -4.226,-0.781 -5.698,-1.254c-1.473,-0.472 -2.736,-1.272 -3.79,-2.399c-1.054,-1.127 -1.581,-2.708 -1.581,-4.744c0,-2.617 1.09,-4.716 3.271,-6.297c2.181,-1.581 5.108,-2.372 8.779,-2.372c1.927,0 3.853,0.236 5.78,0.709c1.926,0.472 3.507,1.108 4.743,1.908l-2.235,4.144c-2.363,-1.527 -5.144,-2.29 -8.343,-2.29c-2.217,0 -3.907,0.364 -5.07,1.091c-1.164,0.727 -1.745,1.69 -1.745,2.889c0,0.945 0.327,1.691 0.981,2.236c0.655,0.545 1.463,0.945 2.427,1.199c0.963,0.255 2.317,0.546 4.062,0.873c2.326,0.4 4.207,0.827 5.643,1.281c1.436,0.455 2.663,1.227 3.681,2.318c1.017,1.09 1.526,2.617 1.526,4.58c0,2.617 -1.118,4.698 -3.353,6.243c-2.236,1.545 -5.28,2.317 -9.133,2.317Z" style="fill:#695f62;fill-rule:nonzero;"/><path d="M786.141,556.425l5.234,0l0,28.898l-5.234,0l0,-28.898Zm2.617,-5.562c-1.018,0 -1.863,-0.327 -2.536,-0.981c-0.672,-0.655 -1.008,-1.454 -1.008,-2.4c0,-0.945 0.336,-1.753 1.008,-2.426c0.673,-0.672 1.518,-1.009 2.536,-1.009c1.018,0 1.863,0.318 2.535,0.955c0.673,0.636 1.009,1.426 1.009,2.371c0,0.982 -0.336,1.809 -1.009,2.481c-0.672,0.673 -1.517,1.009 -2.535,1.009Z" style="fill:#695f62;fill-rule:nonzero;"/><path d="M816.784,556.152c3.671,0 6.588,1.063 8.751,3.19c2.163,2.126 3.244,5.243 3.244,9.351l0,16.63l-5.234,0l0,-16.03c0,-2.799 -0.673,-4.908 -2.018,-6.325c-1.345,-1.418 -3.271,-2.127 -5.779,-2.127c-2.836,0 -5.071,0.827 -6.707,2.481c-1.636,1.654 -2.453,4.026 -2.453,7.116l0,14.885l-5.235,0l0,-28.898l5.016,0l0,4.362c1.055,-1.491 2.481,-2.636 4.281,-3.436c1.799,-0.799 3.844,-1.199 6.134,-1.199Z" style="fill:#695f62;fill-rule:nonzero;"/><path d="M854.733,583.633c-0.763,0.654 -1.708,1.154 -2.835,1.499c-1.127,0.345 -2.29,0.518 -3.49,0.518c-2.908,0 -5.161,-0.781 -6.761,-2.344c-1.599,-1.564 -2.399,-3.799 -2.399,-6.707l0,-15.867l-4.907,0l0,-4.307l4.907,0l0,-6.325l5.235,0l0,6.325l8.287,0l0,4.307l-8.287,0l0,15.649c0,1.563 0.39,2.762 1.172,3.598c0.781,0.837 1.899,1.255 3.353,1.255c1.6,0 2.963,-0.455 4.09,-1.364l1.635,3.763Z" style="fill:#695f62;fill-rule:nonzero;"/><path d="M872.454,585.65c-2.872,0 -5.453,-0.636 -7.743,-1.908c-2.29,-1.273 -4.08,-3.026 -5.37,-5.262c-1.291,-2.236 -1.936,-4.771 -1.936,-7.606c0,-2.836 0.645,-5.371 1.936,-7.607c1.29,-2.235 3.08,-3.98 5.37,-5.234c2.29,-1.254 4.871,-1.881 7.743,-1.881c2.872,0 5.443,0.627 7.715,1.881c2.272,1.254 4.053,2.999 5.344,5.234c1.29,2.236 1.935,4.771 1.935,7.607c0,2.835 -0.645,5.37 -1.935,7.606c-1.291,2.236 -3.072,3.989 -5.344,5.262c-2.272,1.272 -4.843,1.908 -7.715,1.908Zm0,-4.58c1.854,0 3.517,-0.427 4.989,-1.281c1.472,-0.855 2.626,-2.054 3.462,-3.599c0.836,-1.545 1.254,-3.317 1.254,-5.316c0,-2 -0.418,-3.772 -1.254,-5.316c-0.836,-1.545 -1.99,-2.736 -3.462,-3.572c-1.472,-0.836 -3.135,-1.254 -4.989,-1.254c-1.854,0 -3.517,0.418 -4.989,1.254c-1.472,0.836 -2.635,2.027 -3.49,3.572c-0.854,1.544 -1.281,3.316 -1.281,5.316c0,1.999 0.427,3.771 1.281,5.316c0.855,1.545 2.018,2.744 3.49,3.599c1.472,0.854 3.135,1.281 4.989,1.281Z" style="fill:#695f62;fill-rule:nonzero;"/><path d="M924.689,556.152c2.799,0 5.307,0.618 7.525,1.854c2.217,1.236 3.953,2.962 5.207,5.18c1.254,2.217 1.881,4.78 1.881,7.688c0,2.908 -0.627,5.48 -1.881,7.715c-1.254,2.236 -2.99,3.971 -5.207,5.207c-2.218,1.236 -4.726,1.854 -7.525,1.854c-2.072,0 -3.971,-0.4 -5.698,-1.199c-1.726,-0.8 -3.189,-1.963 -4.389,-3.49l0,14.94l-5.234,0l0,-39.476l5.016,0l0,4.58c1.163,-1.6 2.635,-2.808 4.416,-3.626c1.782,-0.818 3.744,-1.227 5.889,-1.227Zm-0.436,24.918c1.854,0 3.517,-0.427 4.989,-1.281c1.472,-0.855 2.635,-2.054 3.49,-3.599c0.854,-1.545 1.281,-3.317 1.281,-5.316c0,-2 -0.427,-3.772 -1.281,-5.316c-0.855,-1.545 -2.018,-2.736 -3.49,-3.572c-1.472,-0.836 -3.135,-1.254 -4.989,-1.254c-1.818,0 -3.462,0.427 -4.935,1.281c-1.472,0.855 -2.635,2.045 -3.489,3.572c-0.854,1.527 -1.282,3.289 -1.282,5.289c0,1.999 0.418,3.771 1.255,5.316c0.836,1.545 1.999,2.744 3.489,3.599c1.491,0.854 3.144,1.281 4.962,1.281Z" style="fill:#695f62;fill-rule:nonzero;"/><rect x="946.554" y="544.865" width="5.234" height="40.458" style="fill:#695f62;fill-rule:nonzero;"/><path d="M972.29,556.152c3.998,0 7.061,0.981 9.187,2.944c2.127,1.963 3.19,4.889 3.19,8.779l0,17.448l-4.962,0l0,-3.817c-0.872,1.345 -2.117,2.372 -3.735,3.081c-1.617,0.709 -3.535,1.063 -5.752,1.063c-3.235,0 -5.825,-0.781 -7.77,-2.344c-1.945,-1.564 -2.917,-3.617 -2.917,-6.162c0,-2.544 0.927,-4.589 2.781,-6.134c1.853,-1.545 4.798,-2.317 8.833,-2.317l8.287,0l0,-1.036c0,-2.254 -0.654,-3.981 -1.962,-5.18c-1.309,-1.2 -3.236,-1.799 -5.78,-1.799c-1.709,0 -3.381,0.281 -5.016,0.845c-1.636,0.563 -3.017,1.317 -4.144,2.262l-2.181,-3.925c1.49,-1.2 3.271,-2.118 5.343,-2.754c2.072,-0.636 4.271,-0.954 6.598,-0.954Zm-1.2,25.463c1.999,0 3.726,-0.445 5.18,-1.336c1.454,-0.89 2.508,-2.153 3.162,-3.789l0,-4.035l-8.069,0c-4.435,0 -6.652,1.49 -6.652,4.471c0,1.454 0.563,2.599 1.69,3.435c1.127,0.836 2.69,1.254 4.689,1.254Z" style="fill:#695f62;fill-rule:nonzero;"/><path d="M1007.13,585.65c-2.944,0 -5.57,-0.636 -7.879,-1.908c-2.308,-1.273 -4.116,-3.026 -5.425,-5.262c-1.308,-2.236 -1.963,-4.771 -1.963,-7.606c0,-2.836 0.655,-5.371 1.963,-7.607c1.309,-2.235 3.117,-3.98 5.425,-5.234c2.309,-1.254 4.935,-1.881 7.879,-1.881c2.618,0 4.953,0.527 7.007,1.581c2.054,1.054 3.644,2.581 4.771,4.58l-3.981,2.563c-0.908,-1.381 -2.035,-2.417 -3.38,-3.108c-1.345,-0.691 -2.835,-1.036 -4.471,-1.036c-1.89,0 -3.59,0.418 -5.098,1.254c-1.509,0.836 -2.69,2.027 -3.544,3.572c-0.855,1.544 -1.282,3.316 -1.282,5.316c0,2.035 0.427,3.826 1.282,5.37c0.854,1.545 2.035,2.736 3.544,3.572c1.508,0.836 3.208,1.254 5.098,1.254c1.636,0 3.126,-0.345 4.471,-1.036c1.345,-0.691 2.472,-1.727 3.38,-3.108l3.981,2.508c-1.127,1.999 -2.717,3.535 -4.771,4.608c-2.054,1.072 -4.389,1.608 -7.007,1.608Z" style="fill:#695f62;fill-rule:nonzero;"/><path d="M1051.35,571.037c0,0.4 -0.036,0.927 -0.109,1.582l-23.446,0c0.328,2.544 1.445,4.589 3.354,6.134c1.908,1.545 4.28,2.317 7.115,2.317c3.453,0 6.234,-1.163 8.343,-3.49l2.889,3.381c-1.308,1.527 -2.935,2.69 -4.88,3.49c-1.944,0.799 -4.116,1.199 -6.515,1.199c-3.054,0 -5.762,-0.627 -8.125,-1.881c-2.362,-1.254 -4.189,-3.008 -5.479,-5.262c-1.291,-2.253 -1.936,-4.798 -1.936,-7.633c0,-2.799 0.627,-5.326 1.881,-7.579c1.254,-2.254 2.981,-4.008 5.18,-5.262c2.199,-1.254 4.68,-1.881 7.443,-1.881c2.762,0 5.225,0.627 7.388,1.881c2.163,1.254 3.853,3.008 5.071,5.262c1.217,2.253 1.826,4.834 1.826,7.742Zm-14.285,-10.469c-2.509,0 -4.608,0.764 -6.298,2.291c-1.69,1.526 -2.681,3.526 -2.972,5.997l18.539,0c-0.291,-2.435 -1.281,-4.425 -2.972,-5.97c-1.69,-1.545 -3.789,-2.318 -6.297,-2.318Z" style="fill:#695f62;fill-rule:nonzero;"/><path d="M1066.89,585.65c-2.363,0 -4.635,-0.318 -6.816,-0.954c-2.181,-0.636 -3.889,-1.445 -5.125,-2.426l2.181,-4.144c1.272,0.908 2.817,1.635 4.635,2.181c1.817,0.545 3.653,0.817 5.507,0.817c4.58,0 6.87,-1.308 6.87,-3.925c0,-0.873 -0.309,-1.563 -0.927,-2.072c-0.618,-0.509 -1.391,-0.882 -2.317,-1.118c-0.927,-0.236 -2.245,-0.5 -3.954,-0.791c-2.326,-0.363 -4.225,-0.781 -5.697,-1.254c-1.473,-0.472 -2.736,-1.272 -3.79,-2.399c-1.054,-1.127 -1.581,-2.708 -1.581,-4.744c0,-2.617 1.09,-4.716 3.271,-6.297c2.181,-1.581 5.108,-2.372 8.779,-2.372c1.926,0 3.853,0.236 5.78,0.709c1.926,0.472 3.507,1.108 4.743,1.908l-2.235,4.144c-2.363,-1.527 -5.144,-2.29 -8.343,-2.29c-2.217,0 -3.907,0.364 -5.07,1.091c-1.164,0.727 -1.745,1.69 -1.745,2.889c0,0.945 0.327,1.691 0.981,2.236c0.654,0.545 1.463,0.945 2.427,1.199c0.963,0.255 2.317,0.546 4.062,0.873c2.326,0.4 4.207,0.827 5.643,1.281c1.436,0.455 2.663,1.227 3.681,2.318c1.017,1.09 1.526,2.617 1.526,4.58c0,2.617 -1.118,4.698 -3.353,6.243c-2.236,1.545 -5.28,2.317 -9.133,2.317Z" style="fill:#695f62;fill-rule:nonzero;"/></svg>