<svg viewBox="0 0 48 48" xmlns="http://www.w3.org/2000/svg" fill-rule="evenodd" clip-rule="evenodd" stroke-linejoin="round" stroke-miterlimit="1.414">
  <path d="M24.301.932c12.879 0 23.335 10.463 23.335 23.35 0 12.887-10.456 23.35-23.335 23.35-12.878 0-23.334-10.463-23.334-23.35C.967 11.395 11.423.932 24.301.932zm-3.422 38.532c-.031-1.106.27-1.982.904-2.626.634-.644 1.509-.982 2.625-1.013 1.116-.031 2.016.264 2.701.886.684.623 1.041 1.458 1.07 2.506.03 1.049-.273 1.888-.907 2.517-.634.63-1.54.961-2.718.994-1.117.031-2.001-.235-2.652-.8-.652-.565-.993-1.386-1.023-2.464zm1.395-6.727c-.024-.874.031-1.677.165-2.409a8.686 8.686 0 0 1 .708-2.162c.337-.709.806-1.429 1.406-2.16.6-.731 1.353-1.546 2.259-2.445 1.057-1.05 1.805-2.047 2.244-2.992.439-.945.643-2 .61-3.165-.043-1.543-.541-2.717-1.494-3.521-.954-.804-2.314-1.182-4.081-1.132-.899.025-1.684.258-2.355.699-.67.441-.997.953-.981 1.536a3.69 3.69 0 0 1 1.502 1.291c.373.558.568 1.158.586 1.798.022.816-.306 1.546-.986 2.192-.681.645-1.61.985-2.788 1.017a3.597 3.597 0 0 1-2.922-1.317 5.248 5.248 0 0 1-.857-1.506 5.548 5.548 0 0 1-.353-1.827 4.949 4.949 0 0 1 .671-2.641c.473-.83 1.135-1.555 1.987-2.176.852-.621 1.862-1.123 3.03-1.505 1.168-.383 2.435-.593 3.799-.631 1.643-.046 3.152.102 4.527.442 1.375.341 2.56.832 3.555 1.475.996.643 1.778 1.422 2.346 2.339.569.917.869 1.929.899 3.035.037 1.311-.315 2.596-1.056 3.855-.74 1.259-2.033 2.745-3.878 4.458a43.243 43.243 0 0 0-2.198 2.16c-.587.628-1.06 1.217-1.417 1.766a5.555 5.555 0 0 0-.745 1.639 6.375 6.375 0 0 0-.183 1.775l-4 .112z" fill="#fff"/>
</svg>
