<svg viewBox="0 0 48 47" xmlns="http://www.w3.org/2000/svg" fill-rule="evenodd" clip-rule="evenodd" stroke-linejoin="round" stroke-miterlimit="1.414">
  <path d="M24.301.051c12.879 0 23.335 10.463 23.335 23.35 0 12.887-10.456 23.35-23.335 23.35-12.878 0-23.334-10.463-23.334-23.35C.967 10.514 11.423.051 24.301.051zm3.694 36.938a1.704 1.704 0 0 1 .694.153c.134.061.257.14.365.232.304.261.476.628.47 1.003a1.262 1.262 0 0 1-.322.814 1.498 1.498 0 0 1-.515.382c-1.114.495-2.243.961-3.365 1.442a1.732 1.732 0 0 1-.654.137 1.741 1.741 0 0 1-.575-.088 1.621 1.621 0 0 1-.496-.27 1.44 1.44 0 0 1-.307-.342 1.236 1.236 0 0 1-.109-1.118c.049-.125.12-.244.208-.352a1.552 1.552 0 0 1 .542-.414c1.114-.495 2.243-.961 3.365-1.442.095-.039.194-.072.296-.095.103-.023.207-.036.313-.041l.09-.001zm1.467-4.362a1.66 1.66 0 0 1 .82.251c.131.081.246.181.342.293a1.234 1.234 0 0 1 .225 1.272c-.053.134-.129.26-.225.373a1.481 1.481 0 0 1-.548.404l-10.443 4.624a1.726 1.726 0 0 1-.664.146h-.03a1.723 1.723 0 0 1-.622-.113 1.587 1.587 0 0 1-.462-.274 1.3 1.3 0 0 1-.468-1.016c.003-.117.024-.234.061-.347.045-.136.114-.265.203-.383a1.46 1.46 0 0 1 .389-.352c.066-.042.134-.076.205-.109l10.443-4.624c.065-.027.08-.035.147-.057.075-.025.152-.045.23-.06.105-.019.21-.027.318-.029l.079.001zm-.035-3.814c.08.005.158.012.237.027a1.632 1.632 0 0 1 .822.409c.236.225.382.518.408.824.013.141 0 .283-.037.421a1.27 1.27 0 0 1-.18.391 1.48 1.48 0 0 1-.637.521L19.597 36.03a1.77 1.77 0 0 1-1.242.059 1.484 1.484 0 0 1-.89-.765 1.21 1.21 0 0 1-.073-.83 1.3 1.3 0 0 1 .27-.509 1.497 1.497 0 0 1 .547-.404l10.443-4.624c.065-.027.08-.034.147-.057a1.65 1.65 0 0 1 .23-.059c.105-.02.21-.027.318-.03l.08.002zm-7.211-.519a1.675 1.675 0 0 1 .695.154c.376.172.66.48.776.84a1.23 1.23 0 0 1-.014.786 1.317 1.317 0 0 1-.25.422 1.502 1.502 0 0 1-.515.382c-1.114.495-2.243.962-3.364 1.442a1.783 1.783 0 0 1-.655.138 1.767 1.767 0 0 1-.574-.089 1.585 1.585 0 0 1-.497-.27 1.304 1.304 0 0 1-.502-1.029c.002-.133.026-.266.072-.393.05-.139.125-.271.222-.39a1.485 1.485 0 0 1 .542-.414c1.114-.495 2.243-.961 3.365-1.442.096-.039.194-.072.297-.095.102-.023.206-.035.312-.041l.09-.001zm2.006-20.202c.535-.001 1.07.027 1.6.088.933.106 1.852.309 2.73.607 1.127.382 2.187.913 3.134 1.573a11.435 11.435 0 0 1 2.022 1.794 10.308 10.308 0 0 1 1.82 2.899 9.45 9.45 0 0 1 .174 6.741 10.282 10.282 0 0 1-2.106 3.487 11.54 11.54 0 0 1-2.185 1.861c-.491.323-1.009.611-1.548.866l-.084.039c-.091.038-.112.05-.208.08-.25.078-.521.098-.783.058a1.602 1.602 0 0 1-.951-.501 1.327 1.327 0 0 1-.225-.346 1.237 1.237 0 0 1-.073-.787c.08-.328.298-.624.605-.822.125-.08.265-.139.4-.204l.196-.099c.282-.148.556-.307.819-.48a8.442 8.442 0 0 0 1.891-1.695 7.479 7.479 0 0 0 1.412-2.658 7.004 7.004 0 0 0-.254-4.6 7.636 7.636 0 0 0-1.35-2.15 8.58 8.58 0 0 0-1.799-1.53 9.345 9.345 0 0 0-2.382-1.08 10.031 10.031 0 0 0-3.193-.393 9.821 9.821 0 0 0-2.962.567 9.247 9.247 0 0 0-2.385 1.271 8.488 8.488 0 0 0-1.363 1.262 7.502 7.502 0 0 0-1.543 2.81 7.028 7.028 0 0 0 .168 4.395c.348.931.897 1.8 1.608 2.552a8.663 8.663 0 0 0 1.956 1.537c.297.171.606.325.923.465l.099.048c.032.018.064.035.095.054.062.038.121.081.176.127.192.16.336.364.415.587.044.128.068.261.069.394.003.302-.109.6-.316.841-.091.106-.2.201-.322.28a1.629 1.629 0 0 1-.401.186 1.742 1.742 0 0 1-1.109-.025c-.063-.023-.127-.052-.188-.079l-.181-.083a11.973 11.973 0 0 1-.621-.31 11.7 11.7 0 0 1-3.045-2.331 10.24 10.24 0 0 1-2.107-3.378 9.454 9.454 0 0 1-.046-6.495 10.216 10.216 0 0 1 1.902-3.233 11.459 11.459 0 0 1 1.944-1.78 12.407 12.407 0 0 1 2.835-1.532 13.166 13.166 0 0 1 2.986-.759 14.055 14.055 0 0 1 1.522-.116l.229-.003z" fill="#fff"/>
</svg>
