<svg viewBox="0 0 109 200" xmlns="http://www.w3.org/2000/svg" fill-rule="evenodd" clip-rule="evenodd" stroke-linejoin="round" stroke-miterlimit="1.414"><path d="M104.792 99.157L2.182 197.074V1.241l102.61 97.916zm-56.683 23.446s2.691-1.558 4.513 1.743c1.072 1.942.257 3.742-1.058 4.915l-7.09 4.074c-3.742 1.463-7.678-3.985-3.557-6.748l7.192-3.984zm-1.79-8.903c.738-.371 3.469-1.096 5.01 1.051 1.236 1.723.604 4.066-1.255 5.304-6.551 3.888-13.039 7.765-19.694 11.473-3.554 1.786-7.873-3.437-3.853-6.363 6.523-3.312 19.792-11.465 19.792-11.465zm-13.233-1.952s2.08-.425 3.158 1.601c1.261 2.373.745 4.713-2.646 6.547-3.173 1.721-5.974 3.885-8.454 2.618-2.455-1.255-2.732-5.241-.234-6.824l7.26-3.801s.56-.139.916-.141zm5.841-45.158a18.11 18.11 0 0 0-1.886.107l-.111.005c-9.419.485-18.34 6.88-21.677 15.675-5.993 15.794 9.793 34.578 15.59 28.174 2.439-2.695 1.493-5.399-.401-6.712-7.874-5.459-10.54-19.733-1.987-26.252 4.68-3.567 11.379-4.059 16.706-1.525 9.7 4.616 11.746 20.001 3.517 26.65-.53.428-.566.504-1.908 1.345-5.179 3.038-1.572 9.222 2.319 7.636 7.786-3.4 12.607-11.087 13.22-19.22.959-12.73-10.597-25.893-23.304-25.884l-.078.001z" fill="#fff"/></svg>