<?xml version="1.0" encoding="UTF-8" standalone="no"?><!DOCTYPE svg PUBLIC "-//W3C//DTD SVG 1.1//EN" "http://www.w3.org/Graphics/SVG/1.1/DTD/svg11.dtd"><svg width="100%" height="100%" viewBox="0 0 200 255" version="1.1" xmlns="http://www.w3.org/2000/svg" xmlns:xlink="http://www.w3.org/1999/xlink" xml:space="preserve" xmlns:serif="http://www.serif.com/" style="fill-rule:evenodd;clip-rule:evenodd;stroke-linejoin:round;stroke-miterlimit:1.41421;"><g id="ic-tip"><path d="M135.285,23.016c0,-10.409 8.469,-18.876 18.866,-18.876c10.419,0 18.882,8.475 18.882,18.876l0,101.599l-37.748,-36.476l0,-7.623l0,-10.544l0,-46.956Z" style="fill:#a71c3e;fill-rule:nonzero;"/><path d="M109.203,73.58c7.069,0 13.523,4.006 16.748,10.256c-0.767,0.097 -1.514,0.379 -2.105,0.971c-16.135,16.135 -16.135,42.374 0,58.509l3.773,3.774c-1.887,8.589 -9.596,14.804 -18.416,14.804c-10.419,0 -18.882,-8.472 -18.882,-18.874l0,-14.518l0,-36.043c0,-10.419 8.463,-18.879 18.882,-18.879" style="fill:#a71c3e;fill-rule:nonzero;"/><path d="M142.48,161.987c-0.154,-0.021 -0.296,-0.085 -0.452,-0.085l-14.987,0c2.683,-2.535 4.9,-5.569 6.33,-9.074l9.157,9.165c-0.02,-0.006 -0.035,-0.006 -0.048,-0.006" style="fill:#a71c3e;fill-rule:nonzero;"/><path d="M64.237,73.58c10.409,0 18.872,8.47 18.872,18.871l0,36.043c0,10.415 -8.469,18.878 -18.872,18.878c-10.411,0 -18.873,-8.473 -18.873,-18.878l0,-36.043c-0.003,-10.411 8.462,-18.871 18.873,-18.871" style="fill:#a71c3e;fill-rule:nonzero;"/><path d="M19.272,65.096c10.418,0 18.881,8.47 18.881,18.872l0,44.522c0,23.161 29.345,34.756 45.159,17.769c0.763,6.117 3.675,11.575 7.933,15.629l-50.588,0c-4.663,0 -4.659,7.208 0,7.208l87.716,0l-20.789,11.802c-4.164,2.351 -0.385,8.488 3.555,6.262l32.662,-18.549c1.115,-0.637 2.052,-2.256 1.8,-3.555l15.417,15.41c3.286,3.302 8.394,-1.795 5.098,-5.098l-37.167,-37.158c-13.081,-13.083 -13.281,-34.2 -0.673,-47.572c0.172,0.631 67.82,66.286 67.82,66.286c-0.437,28.989 -24.243,97.506 -97.826,96.367c-53.284,-0.825 -97.857,-46.112 -97.857,-97.853l0,-71.464c-0.013,-10.408 8.452,-18.878 18.859,-18.878" style="fill:#a71c3e;fill-rule:nonzero;"/></g></svg>