<svg viewBox="0 0 196 200" xmlns="http://www.w3.org/2000/svg" fill-rule="evenodd" clip-rule="evenodd" stroke-linejoin="round" stroke-miterlimit="1.414"><path d="M97.928 3.883c53.661 0 97.226 43.595 97.226 97.291 0 53.697-43.565 97.292-97.226 97.292-53.66 0-97.225-43.595-97.225-97.292 0-53.696 43.565-97.291 97.225-97.291zm14.262 159.504c0 3.941-1.472 7.317-4.417 10.127-2.944 2.81-6.368 4.215-10.27 4.215-3.761 0-7.007-1.387-9.739-4.16-2.731-2.774-4.097-6.022-4.097-9.744 0-4.233 1.419-7.682 4.257-10.346 2.838-2.664 6.315-3.996 10.43-3.996 3.903 0 7.184 1.332 9.845 3.996 2.661 2.664 3.991 5.967 3.991 9.908zm-2.04-113.028c0 2.63-.61 10.523-1.829 23.676l-5.39 57.363c-.321 3.272-1.86 4.909-4.62 4.909-2.823 0-4.395-1.637-4.716-4.909l-6.063-57.363c-1.219-11.934-1.829-19.602-1.829-23.003 0-11.934 4.267-17.901 12.801-17.901 4.235 0 7.379 2.117 9.432 6.352 1.54 3.08 2.278 6.705 2.214 10.876z" fill="#fff"/></svg>