<?xml version="1.0" encoding="UTF-8" standalone="no"?><!DOCTYPE svg PUBLIC "-//W3C//DTD SVG 1.1//EN" "http://www.w3.org/Graphics/SVG/1.1/DTD/svg11.dtd"><svg width="100%" height="100%" viewBox="0 0 301 155" version="1.1" xmlns="http://www.w3.org/2000/svg" xmlns:xlink="http://www.w3.org/1999/xlink" xml:space="preserve" style="fill-rule:evenodd;clip-rule:evenodd;stroke-linejoin:round;stroke-miterlimit:1.41421;"><rect id="logo.-main.-tagless.-semantique" x="0.233" y="0" width="300" height="155" style="fill:none;"/><clipPath id="_clip1"><rect x="0.233" y="0" width="300" height="155"/></clipPath><g clip-path="url(#_clip1)"><g id="logo.-main"><path d="M0.331,144.144l0,-9.562l21.231,0l0,4.362l-16.363,0l0,1.677l21.231,4.161l0,10.031l-26.099,0l0,-4.361l21.231,0l0,-2.147l-21.231,-4.161Z" style="fill-rule:nonzero;"/><path d="M31.111,149.747l0,-15.131l26.062,0l0,11.273l-4.831,0l0,-6.912l-16.401,0l0,7.247l21.232,4.094l0,4.495l-26.062,-5.066Z" style="fill-rule:nonzero;"/><path d="M97.913,154.813l-4.867,0l0,-10.132l-15.203,3.254l0,-8.991l-7.677,0l-4.418,15.869l-5.018,0l5.58,-20.231l16.401,0l0,7.885l15.202,-3.288l0,15.634Z" style="fill-rule:nonzero;"/><path d="M108.735,143.171l0,7.281l11.533,0l0,4.361l-16.363,0l0,-15.097l26.099,-5.1l0,20.197l-4.868,0l0,-14.762l-16.401,3.12Z" style="fill-rule:nonzero;"/><path d="M135.247,134.616l22.429,0l5.617,20.197l-5.018,0l-4.418,-15.836l-13.743,0l0,15.836l-4.867,0l0,-20.197Z" style="fill-rule:nonzero;"/><path d="M175.463,138.944l-10.485,0l0,-4.362l26.062,0l0,4.362l-10.559,0l-4.419,15.869l-5.018,0l4.419,-15.869Z" style="fill-rule:nonzero;"/><rect x="194.597" y="134.616" width="4.868" height="20.198" style="fill-rule:nonzero;"/><path d="M239.682,154.813l-8.688,0l-26.099,-5.099l0,-15.132l26.099,0l0,11.508l-4.868,0l0,-7.146l-16.363,0l0,7.28l23.104,4.463l6.815,0l0,4.126Z" style="fill-rule:nonzero;"/><path d="M269.413,154.813l-22.467,-0.033l-5.579,-20.198l5.017,0l4.419,15.87l13.742,0l0,-15.87l4.868,0l0,20.231Z" style="fill-rule:nonzero;"/><path d="M274.468,149.747l0,-15.131l26.062,0l0,11.273l-4.83,0l0,-6.912l-16.401,0l0,7.247l21.231,4.094l0,4.495l-26.062,-5.066Z" style="fill-rule:nonzero;"/><path d="M0.541,56.04l0,-56.04l270.506,0l0,25.562l-245.422,0l0,9.832l274.306,24.382l0,58.794l-299.39,0l0,-25.563l269.443,0.893l0,-12.584l-269.443,-25.276Z" style="fill-rule:nonzero;"/></g></g></svg>