<?xml version="1.0" encoding="UTF-8" standalone="no"?><!DOCTYPE svg PUBLIC "-//W3C//DTD SVG 1.1//EN" "http://www.w3.org/Graphics/SVG/1.1/DTD/svg11.dtd"><svg width="100%" height="100%" viewBox="0 0 31 32" version="1.1" xmlns="http://www.w3.org/2000/svg" xmlns:xlink="http://www.w3.org/1999/xlink" xml:space="preserve" xmlns:serif="http://www.serif.com/" style="fill-rule:evenodd;clip-rule:evenodd;stroke-linejoin:round;stroke-miterlimit:1.41421;"><g id="radio-btn-md-checked"><path d="M15.057,0.327c8.279,0 15,6.911 15,15.423c0,8.512 -6.721,15.423 -15,15.423c-8.279,0 -15,-6.911 -15,-15.423c0,-8.512 6.721,-15.423 15,-15.423Zm0,6.449c4.817,0 8.727,4.021 8.727,8.974c0,4.953 -3.91,8.974 -8.727,8.974c-4.817,0 -8.728,-4.021 -8.728,-8.974c0,-4.953 3.911,-8.974 8.728,-8.974Zm1.99,4.017c0.162,0.098 2.765,1.579 2.765,1.579l-5.183,9.075l-0.518,0.069l-4.711,-2.808l1.566,-3.009l2.52,1.358l3.561,-6.264Z" style="fill:#fff;"/></g></svg>